<?xml version="1.0" standalone="no"?>
<!DOCTYPE svg PUBLIC "-//W3C//DTD SVG 20010904//EN"
 "http://www.w3.org/TR/2001/REC-SVG-20010904/DTD/svg10.dtd">
<svg version="1.0" xmlns="http://www.w3.org/2000/svg"
 width="2048.000000pt" height="2048.000000pt" viewBox="0 0 2048.000000 2048.000000"
 preserveAspectRatio="xMidYMid meet">
<metadata>
Created by potrace 1.14, written by Peter Selinger 2001-2017
</metadata>
<g transform="translate(0.000000,2048.000000) scale(0.100000,-0.100000)"
fill="#000000" stroke="none">
<path d="M4935 18769 c-685 -66 -1257 -556 -1425 -1221 -48 -194 -50 -231 -50
-1215 l0 -923 625 0 625 0 0 893 c0 983 -2 949 62 1049 37 58 83 100 151 136
l52 27 1363 3 1362 2 0 630 0 630 -1337 -1 c-736 -1 -1378 -6 -1428 -10z"/>
<path d="M11000 18150 l0 -630 2253 -2 2252 -3 52 -27 c68 -36 114 -78 151
-136 64 -100 62 -66 62 -1044 l0 -888 625 0 625 0 0 918 c0 603 -4 948 -11
1007 -67 549 -421 1039 -920 1274 -182 85 -354 131 -564 151 -70 6 -904 10
-2317 10 l-2208 0 0 -630z"/>
<path d="M6580 13275 l0 -625 1385 0 1385 0 0 625 0 625 -1385 0 -1385 0 0
-625z"/>
<path d="M6585 10858 c-3 -7 -4 -290 -3 -628 l3 -615 3655 0 3655 0 0 625 0
625 -3653 3 c-2917 2 -3654 0 -3657 -10z"/>
<path d="M6580 7205 l0 -625 3660 0 3660 0 0 625 0 625 -3660 0 -3660 0 0
-625z"/>
<path d="M3463 4353 c3 -1078 5 -1207 21 -1283 75 -379 207 -632 461 -885 217
-218 432 -344 714 -421 225 -62 44 -57 2549 -61 l2292 -4 0 631 0 630 -2245 0
-2244 0 -56 21 c-74 27 -165 112 -202 187 l-28 57 -3 1163 -2 1162 -631 0
-630 0 4 -1197z"/>
<path d="M15770 4417 c0 -1248 3 -1187 -62 -1289 -37 -58 -83 -100 -151 -136
l-52 -27 -1352 -3 -1353 -2 0 -630 0 -630 1308 0 c1368 0 1453 2 1642 44 667
149 1176 712 1259 1391 7 60 11 471 11 1253 l0 1162 -625 0 -625 0 0 -1133z"/>
</g>
</svg>
